<svg width="512" height="512" viewBox="0 0 512 512" aria-hidden="true" focusable="false" role="img" xmlns="http://www.w3.org/2000/svg"><path fill="currentColor" d="M256,-0c141.29,-0 256,114.71 256,256c0,141.29 -114.71,256 -256,256c-141.29,-0 -256,-114.71 -256,-256c0,-141.29 114.71,-256 256,-256Zm0,464c114.798,-0 208,-93.202 208,-208c0,-114.798 -93.202,-208 -208,-208c-114.798,-0 -208,93.202 -208,208c0,114.798 93.202,208 208,208Z"/><path fill="currentColor" d="M256,140.684c0,-4.806 -2.895,-9.138 -7.334,-10.977c-4.44,-1.839 -9.55,-0.823 -12.948,2.575c-30.756,30.756 -88.172,88.172 -112.434,112.434c-2.993,2.993 -4.674,7.052 -4.674,11.284c0,4.232 1.681,8.291 4.674,11.284c24.262,24.262 81.678,81.678 112.434,112.434c3.398,3.398 8.508,4.414 12.948,2.575c4.439,-1.839 7.334,-6.171 7.334,-10.977c0,-28.287 0,-67.316 0,-67.316l115.9,-0c6.682,-0 12.1,-5.418 12.1,-12.1c0,-18.438 0,-53.362 0,-71.8c0,-6.682 -5.418,-12.1 -12.1,-12.1c-31.908,0 -115.9,0 -115.9,0l0,-67.316Z"/></svg>